<?xml version="1.0" encoding="utf-8"?>
<!-- Generator: Adobe Illustrator 16.2.1, SVG Export Plug-In . SVG Version: 6.00 Build 0)  -->
<!DOCTYPE svg PUBLIC "-//W3C//DTD SVG 1.1//EN" "http://www.w3.org/Graphics/SVG/1.1/DTD/svg11.dtd">
<svg version="1.1" xmlns="http://www.w3.org/2000/svg" xmlns:xlink="http://www.w3.org/1999/xlink" x="0px" y="0px" viewBox="0 0 268 255" style="enable-background:new 0 0 268 255;" xml:space="preserve">
<style type="text/css">
<![CDATA[
	.st0{fill:#ABABAB;}
	.st1{fill:none;stroke:#000000;stroke-width:11;stroke-miterlimit:10;}
	.st2{fill:none;stroke:#000000;stroke-width:15;stroke-miterlimit:10;}
	.st3{display:inline;}
	.st4{display:none;}
]]>
</style>
<g id="Layer_5">
	<g>
		<circle class="st1" cx="40.6" cy="67.2" r="29.3"/>
		<circle class="st0" cx="40.6" cy="67.2" r="16.9"/>
		<circle class="st1" cx="103.5" cy="67.2" r="29.3"/>
		<circle class="st0" cx="103.5" cy="67.2" r="16.9"/>
		<circle class="st1" cx="166.5" cy="67.2" r="29.3"/>
		<circle class="st0" cx="166.5" cy="67.2" r="16.9"/>
		<circle class="st1" cx="230.2" cy="67.2" r="29.3"/>
		<circle class="st0" cx="230.2" cy="67.2" r="16.9"/>
		<circle class="st1" cx="40.6" cy="130.2" r="29.3"/>
		<circle class="st0" cx="40.6" cy="130.2" r="16.9"/>
		<circle class="st1" cx="103.5" cy="130.2" r="29.3"/>
		<circle class="st0" cx="103.5" cy="130.2" r="16.9"/>
		<circle class="st1" cx="166.5" cy="130.2" r="29.3"/>
		<circle class="st0" cx="166.5" cy="130.2" r="16.9"/>
		<circle class="st1" cx="230.2" cy="130.2" r="29.3"/>
		<circle class="st0" cx="230.2" cy="130.2" r="16.9"/>
		<circle class="st1" cx="40.6" cy="193.1" r="29.3"/>
		<circle class="st0" cx="40.6" cy="193.1" r="16.9"/>
		<circle class="st1" cx="103.5" cy="193.1" r="29.3"/>
		<circle class="st0" cx="103.5" cy="193.1" r="16.9"/>
		<circle class="st1" cx="166.5" cy="193.1" r="29.3"/>
		<circle class="st0" cx="166.5" cy="193.1" r="16.9"/>
		<circle class="st1" cx="230.2" cy="193.1" r="29.3"/>
		<circle class="st0" cx="230.2" cy="193.1" r="16.9"/>
		<circle class="st0" cx="71.7" cy="67.2" r="8.1"/>
		<circle class="st0" cx="40.6" cy="98.8" r="8.1"/>
		<circle class="st0" cx="105" cy="98.8" r="8.1"/>
		<circle class="st0" cx="167.2" cy="98.8" r="8.1"/>
		<circle class="st0" cx="230.2" cy="98.8" r="8.1"/>
		<circle class="st0" cx="40.6" cy="161.7" r="8.1"/>
		<circle class="st0" cx="105" cy="161.7" r="8.1"/>
		<circle class="st0" cx="167.2" cy="161.7" r="8.1"/>
		<circle class="st0" cx="230.2" cy="161.7" r="8.1"/>
		<circle class="st0" cx="134.6" cy="67.2" r="8.1"/>
		<circle class="st0" cx="198.3" cy="67.2" r="8.1"/>
		<circle class="st0" cx="71.7" cy="128.7" r="8.1"/>
		<circle class="st0" cx="134.6" cy="128.7" r="8.1"/>
		<circle class="st0" cx="198.3" cy="128.7" r="8.1"/>
		<circle class="st0" cx="71.7" cy="191.6" r="8.1"/>
		<circle class="st0" cx="134.6" cy="191.6" r="8.1"/>
		<circle class="st0" cx="198.3" cy="191.6" r="8.1"/>
	</g>
</g>
</svg>
